<svg xmlns="http://www.w3.org/2000/svg" viewBox="0 336.818 614.524 118.364" enable-background="new 0 336.818 614.524 118.364"><path fill="#686765" d="M0 370.44l15.844 27.783 16.05-27.783H0zm102.762 33.794c.798-1.9-7.33-8.55-2.143-23.244 1.05-2.98 7.09-2.477 3.98-10.686-2.3-6.074-6.6-13.39-11.21-17.992-4.62-4.61-9.51-8.712-15.49-11.244-6.2-2.623-11.41-4.047-19.13-4.234-6.78-.162-14.45.967-20.64 3.59-5.98 2.532-11.35 6.152-15.96 10.76-4.61 4.605-8.23 9.977-10.77 15.96-.6 1.404-1.12 2.82-1.58 4.25l11.26.012.06-.144c2-4.718 4.85-8.96 8.5-12.595 3.63-3.648 7.87-6.503 12.59-8.498 4.88-2.06 10.07-3.11 15.42-3.11s10.46 1.35 15.35 3.41c4.72 1.99 8.37 5.1 12.01 8.76 3.64 3.64 6.76 8.72 8.75 13.44 2.06 4.88 2.44 8.9 2.44 14.25s-1.4 10.59-3.46 15.47m-82.94-31"/><linearGradient id="a" gradientUnits="userSpaceOnUse" x1="4.468" y1="763.858" x2="41.117" y2="763.858" gradientTransform="matrix(2.525 0 0 -2.525 0 2336.265)"><stop offset="0" stop-color="#fff"/><stop offset="0" stop-color="#878683"/><stop offset=".46" stop-color="#858481"/><stop offset=".626" stop-color="#7E7D7B"/><stop offset=".744" stop-color="#73726F"/><stop offset=".84" stop-color="#62615F"/><stop offset=".921" stop-color="#4C4C4B"/><stop offset=".992" stop-color="#313131"/><stop offset="1" stop-color="#2E2E2E"/></linearGradient><path fill="url(#a)" d="M96.05 385.257c0 5.355-.607 10.55-2.667 15.435-1.99 4.718-4.213 8.707-7.856 12.35-3.643 3.638-7.77 6.834-12.49 8.838-4.88 2.057-9.24 3.37-14.593 3.37-5.344 0-10.416-.465-15.296-2.525-4.718-2.005-8.427-3.805-12.067-7.442-2.91-2.916-6.4-7.452-8.28-11.083l-11.52-.073.55 1.333c2.53 5.973 6.24 11.39 10.84 16 10.74 10.738 24.14 15.295 40.14 13.755 4.73-.457 10.07-1.79 14.46-3.645 11.93-5.042 22.57-16.018 26.51-28.434.61-1.926-5.02-5.534-3.21-12.686.96-3.8 1.45-6 .48-10.227l-4.97 5.034z"/><path fill="#0065A4" d="M146.672 414.59v-30.752c0-4.476-.12-9.323-.348-14.536h12.03l.633 6.273h.285c3.214-4.89 7.9-7.32 14.02-7.32 2.945 0 5.55.69 7.817 2.08 2.26 1.395 3.89 3.364 4.92 5.894h.18c3.78-5.31 8.74-7.98 14.86-7.98 4.78 0 8.56 1.72 11.38 5.19 2.8 3.45 4.24 8.37 4.24 14.72v26.43h-13.94v-24.37c0-6.98-2.32-10.48-6.92-10.48-2.06 0-3.78.79-5.14 2.38-1.37 1.59-2.06 3.66-2.06 6.23v26.22h-13.92v-25.03c0-3.17-.59-5.57-1.76-7.27-1.19-1.7-2.84-2.54-4.98-2.54-2.02 0-3.74.79-5.2 2.4-1.46 1.6-2.19 3.7-2.19 6.3v26.13h-13.93zm122.695-18.127h-30.103c.245 2.7 1.59 4.794 4.044 6.296 2.456 1.49 5.514 2.23 9.18 2.23 4.7 0 9.012-.58 12.963-1.74l1.86 9.42c-4.68 1.96-10.29 2.93-16.83 2.93-7.74 0-13.8-2.06-18.19-6.2-4.41-4.14-6.6-9.79-6.6-16.96 0-6.6 2.12-12.27 6.35-17.04 4.23-4.78 9.92-7.16 17.08-7.16 6.6 0 11.72 2.11 15.36 6.39 3.65 4.24 5.47 9.69 5.47 16.36 0 2.18-.18 3.99-.55 5.45zm-30.274-9.752h17.412c0-2.14-.626-4.18-1.87-6.13-1.253-1.94-3.376-2.92-6.365-2.92-2.477 0-4.524.84-6.147 2.5-1.624 1.68-2.64 3.86-3.03 6.56zm39.222 27.88v-30.75c0-4.47-.12-9.32-.353-14.53h12.014l.656 6.28h.28c3.214-4.89 7.887-7.32 14.024-7.32 2.95 0 5.56.69 7.814 2.08 2.262 1.4 3.91 3.37 4.933 5.9h.174c3.797-5.3 8.735-7.97 14.87-7.97 4.77 0 8.57 1.72 11.39 5.19 2.803 3.45 4.217 8.38 4.217 14.72v26.43H334.38v-24.36c0-6.98-2.285-10.48-6.895-10.48-2.068 0-3.784.79-5.15 2.39-1.37 1.59-2.05 3.67-2.05 6.23v26.22h-13.933v-25.03c0-3.16-.583-5.57-1.737-7.26-1.18-1.7-2.855-2.54-4.994-2.54-1.99 0-3.73.79-5.17 2.41-1.46 1.6-2.2 3.7-2.2 6.31v26.12h-13.93zm120.284-26.8v15.77c0 4.57.22 8.26.69 11.04h-12.9l-.82-4.55h-.38c-3.12 3.71-7.55 5.58-13.24 5.58-4.45 0-8.07-1.32-10.83-4.04-2.78-2.71-4.18-5.98-4.18-9.86 0-5.63 2.35-9.93 7.09-12.93 4.71-2.99 11.45-4.49 20.26-4.49v-.56c0-3.81-2.83-5.71-8.5-5.71-4.64 0-8.91 1.16-12.86 3.49l-2.68-9.06c5.03-2.79 11.03-4.18 18.03-4.18 6.67 0 11.72 1.68 15.14 5.05s5.14 8.21 5.14 14.48zm-13.77 9.92v-4.55c-9.07 0-13.59 2.31-13.59 6.92 0 1.66.52 2.96 1.52 3.9 1.02.91 2.42 1.37 4.22 1.37 1.93 0 3.72-.65 5.38-1.99 1.66-1.32 2.46-3.2 2.46-5.63zm40.54-41.9c0 2.14-.75 3.89-2.24 5.3-1.5 1.4-3.46 2.09-5.87 2.09s-4.38-.69-5.86-2.09c-1.49-1.41-2.24-3.16-2.24-5.3 0-2.12.75-3.88 2.26-5.29 1.49-1.41 3.45-2.12 5.83-2.12s4.32.71 5.84 2.12c1.49 1.41 2.26 3.18 2.26 5.3zm-1.06 58.79h-14.26v-45.3h14.26v45.29zm11.67 0v-30.75c0-4.47-.12-9.32-.35-14.53H448l.654 6.39h.36c3.37-4.97 8.163-7.43 14.376-7.43 5.084 0 9.14 1.72 12.15 5.16 3 3.46 4.505 8.31 4.505 14.57v26.61H465.78v-24.76c0-6.71-2.527-10.08-7.564-10.08-2.08 0-3.92.77-5.526 2.31-1.603 1.55-2.42 3.74-2.42 6.58v25.94h-14.28zm71.43-7.59c0 2.54-.79 4.61-2.39 6.22-1.58 1.62-3.63 2.39-6.11 2.39-2.47 0-4.48-.8-6.05-2.41-1.57-1.63-2.37-3.68-2.37-6.2 0-2.49.82-4.56 2.41-6.18 1.6-1.63 3.63-2.44 6.08-2.44 2.49 0 4.52.81 6.08 2.42 1.55 1.61 2.33 3.67 2.33 6.21zm8.48-6.04v-52.39h14.3v26.27h.18c3.15-4.4 7.9-6.58 14.26-6.58 5.64 0 10.29 2.1 13.91 6.34 3.62 4.21 5.43 9.73 5.43 16.55 0 4.67-.91 8.89-2.72 12.63-1.82 3.79-4.38 6.68-7.73 8.77-3.33 2.06-6.94 3.08-10.85 3.08-6.4 0-11.1-2.46-14.11-7.43h-.2l-.64 6.41h-12.18c.22-4.09.32-8.62.32-13.63zm14.29-11.83v5.98c0 3.1.94 5.46 2.81 7.1 1.88 1.64 3.94 2.45 6.21 2.45 3.13 0 5.59-1.13 7.41-3.4 1.81-2.28 2.71-5.41 2.71-9.38 0-3.82-.9-6.85-2.69-9.17-1.79-2.3-4.28-3.46-7.44-3.46-2.45 0-4.58.94-6.35 2.78-1.79 1.84-2.68 4.21-2.68 7.14zm83.76 7.34h-30.1c.24 2.7 1.6 4.8 4.05 6.3 2.44 1.49 5.5 2.23 9.18 2.23 4.69 0 9.01-.57 12.96-1.74l1.85 9.43c-4.67 1.97-10.29 2.94-16.83 2.94-7.75 0-13.81-2.06-18.21-6.19-4.39-4.14-6.59-9.78-6.59-16.96 0-6.59 2.11-12.26 6.34-17.04 4.24-4.78 9.92-7.16 17.07-7.16 6.6 0 11.73 2.12 15.37 6.4 3.64 4.25 5.46 9.7 5.46 16.36 0 2.19-.18 4-.56 5.46zm-30.27-9.75h17.41c0-2.14-.61-4.18-1.88-6.13-1.26-1.94-3.38-2.92-6.36-2.92-2.48 0-4.52.84-6.14 2.5-1.63 1.68-2.65 3.86-3.05 6.56zm-286.1 60.74c-.91.44-2.61.77-4.55.77-5.29 0-8.67-3.24-8.67-8.36 0-4.78 3.28-8.7 9.36-8.7 1.33 0 2.81.24 3.87.64l-.8 3.78c-.6-.27-1.51-.5-2.84-.5-2.68 0-4.41 1.91-4.38 4.58 0 2.98 2.01 4.58 4.48 4.58 1.21 0 2.14-.2 2.91-.53l.61 3.75zm8.93-22.71c-1.04 3.25-2.48 6.52-4.02 9.03l-3.08.3c1-2.87 1.87-6.08 2.34-9.03l4.75-.3zm3.24 16.59c.13 2.11 2.24 3.11 4.62 3.11 1.73 0 3.14-.23 4.51-.7l.66 3.45c-1.67.71-3.71 1.04-5.92 1.04-5.56 0-8.73-3.21-8.73-8.33 0-4.14 2.57-8.73 8.26-8.73 5.28 0 7.29 4.12 7.29 8.17 0 .87-.1 1.64-.17 2.01h-10.54zm5.98-3.48c0-1.24-.54-3.31-2.88-3.31-2.14 0-3.01 1.97-3.15 3.31h6.02zm7.4 5.62c.93.57 2.87 1.21 4.38 1.21 1.53 0 2.17-.5 2.17-1.34 0-.87-.5-1.27-2.38-1.9-3.42-1.14-4.72-2.97-4.69-4.91 0-3.07 2.61-5.38 6.65-5.38 1.9 0 3.57.47 4.58.97l-.86 3.51c-.74-.4-2.18-.93-3.55-.93-1.24 0-1.94.51-1.94 1.31s.63 1.2 2.64 1.9c3.11 1.07 4.38 2.67 4.41 5.05 0 3.08-2.38 5.32-7.06 5.32-2.14 0-4.05-.5-5.29-1.17l.91-3.61zm19.91-16.35v4.42h3.65v3.74h-3.65v5.92c0 1.97.5 2.87 2.01 2.87.7 0 1.03-.03 1.5-.13l.03 3.85c-.64.24-1.88.44-3.28.44-1.64 0-3.01-.57-3.85-1.4-.94-.97-1.41-2.54-1.41-4.85v-6.69h-2.17v-3.74h2.17v-3.04l4.98-1.37zm17.93-.13c0 1.41-1.04 2.55-2.74 2.55-1.61 0-2.64-1.14-2.64-2.54 0-1.44 1.06-2.54 2.7-2.54 1.64 0 2.64 1.1 2.67 2.54zm-5.26 20.91v-16.36h5.08v16.35h-5.08zm21.11-.43c-.91.44-2.61.77-4.55.77-5.29 0-8.67-3.24-8.67-8.36 0-4.78 3.28-8.69 9.37-8.69 1.33 0 2.81.24 3.87.64l-.8 3.78c-.6-.27-1.51-.5-2.84-.5-2.68 0-4.42 1.91-4.39 4.59 0 2.98 2.01 4.58 4.48 4.58 1.2 0 2.14-.2 2.91-.53l.6 3.75zm7.73-20.47c0 1.41-1.04 2.55-2.75 2.55-1.6 0-2.64-1.14-2.64-2.54 0-1.44 1.07-2.54 2.71-2.54s2.64 1.1 2.67 2.54zm-5.25 20.91v-16.36h5.08v16.35h-5.08zm26.03-2.07h-.07c-1.04 1.57-2.68 2.44-4.88 2.44-3.55 0-6.76-3.14-6.76-8.32 0-5.89 3.71-8.8 7.23-8.8 2.11 0 3.64.77 4.58 2.31l.06.04.14-1.94h4.88c-.03 1.61-.1 3.21-.1 4.92v18.06h-5.09v-8.7zm0-7.42c0-.3-.04-.57-.11-.83-.27-1.3-1.38-2.44-2.94-2.44-2.31 0-3.52 1.97-3.52 4.61 0 2.71 1.34 4.52 3.48 4.52 1.44 0 2.61-.97 2.94-2.3.1-.33.14-.77.14-1.1v-2.44zm24.22 4.25c0 2.14.06 3.88.13 5.25h-4.42l-.24-2.3h-.1c-.64 1-2.18 2.67-5.12 2.67-3.35 0-5.75-2.07-5.75-7.12v-9.6h5.08v8.8c0 2.38.77 3.82 2.57 3.82 1.41 0 2.25-.97 2.55-1.77.13-.3.2-.67.2-1.1v-9.73h5.08v11.1zm7.67-1.3c.13 2.11 2.24 3.11 4.62 3.11 1.74 0 3.14-.23 4.51-.7l.66 3.45c-1.67.71-3.71 1.04-5.92 1.04-5.56 0-8.73-3.21-8.73-8.33 0-4.14 2.57-8.73 8.26-8.73 5.28 0 7.29 4.12 7.29 8.17 0 .87-.1 1.64-.17 2.01H437.2zm5.98-3.48c0-1.24-.54-3.31-2.88-3.31-2.14 0-3 1.97-3.14 3.31h6.02zm26.13 9.64c-.74.37-2.1.67-3.74.74l-.64 1.17c1.27.3 2.44 1.14 2.44 2.68 0 2.34-2.07 3.11-4.02 3.11-.97 0-2.04-.2-2.81-.63l.63-2.07c.5.27 1.28.47 1.87.47.67 0 1.2-.2 1.2-.84 0-.67-.76-1.03-2.64-1.24l1.34-2.81c-4.25-.63-6.85-3.67-6.85-8.19 0-4.78 3.27-8.69 9.36-8.69 1.34 0 2.81.24 3.88.64l-.81 3.78c-.6-.27-1.5-.5-2.84-.5-2.67 0-4.41 1.91-4.38 4.58 0 3.01 2 4.62 4.45 4.62 1.24 0 2.17-.21 2.94-.54l.59 3.75zm16.24-3.55c0 1.54.06 3.04.27 3.95h-4.58l-.3-1.63h-.11c-1.07 1.3-2.74 2-4.68 2-3.31 0-5.29-2.41-5.29-5.02 0-4.25 3.82-6.25 9.61-6.25v-.2c0-.9-.47-2.14-2.98-2.14-1.67 0-3.44.57-4.51 1.24l-.94-3.28c1.14-.63 3.38-1.47 6.36-1.47 5.45 0 7.16 3.21 7.16 7.09V444h-.01zm-4.92-3.78c-2.67 0-4.75.64-4.75 2.58 0 1.31.87 1.94 2.01 1.94 1.24 0 2.31-.84 2.64-1.87.06-.27.09-.57.09-.87v-1.78zm15.03 3.31c.93.57 2.87 1.21 4.38 1.21 1.53 0 2.17-.5 2.17-1.34 0-.87-.5-1.27-2.38-1.91-3.41-1.14-4.71-2.97-4.68-4.92 0-3.07 2.61-5.38 6.66-5.38 1.9 0 3.57.47 4.58.97l-.87 3.51c-.74-.4-2.18-.93-3.55-.93-1.24 0-1.94.5-1.94 1.31s.63 1.2 2.64 1.91c3.11 1.07 4.38 2.67 4.41 5.05 0 3.07-2.38 5.32-7.06 5.32-2.14 0-4.05-.51-5.29-1.17l.9-3.62zm18.14-2.14c.13 2.11 2.23 3.11 4.61 3.11 1.73 0 3.14-.23 4.51-.7l.67 3.45c-1.67.71-3.71 1.04-5.92 1.04-5.55 0-8.73-3.21-8.73-8.33 0-4.14 2.58-8.73 8.26-8.73 5.28 0 7.29 4.12 7.29 8.17 0 .87-.11 1.64-.17 2.01H513.8zm5.98-3.48c0-1.24-.53-3.31-2.88-3.31-2.14 0-3.02 1.97-3.15 3.31h6.02zm13.86-.83c0-2.14-.07-3.95-.13-5.49H538l.235 2.28h.07c1.205-1.7 3.078-2.64 5.454-2.64 3.57 0 6.78 3.11 6.78 8.33 0 5.96-3.78 8.77-7.43 8.77-1.98 0-3.52-.8-4.25-1.87h-.07v8.13h-5.09v-17.51zm5.08 3.85c0 .4.03.73.09 1.07.34 1.37 1.51 2.4 2.98 2.4 2.21 0 3.51-1.83 3.51-4.61 0-2.61-1.17-4.58-3.44-4.58-1.44 0-2.71 1.07-3.05 2.58-.06.27-.09.6-.09.9v2.24zm28.2 3.07c0 1.54.06 3.04.27 3.95h-4.58l-.3-1.63h-.11c-1.07 1.31-2.74 2.01-4.68 2.01-3.31 0-5.29-2.41-5.29-5.02 0-4.25 3.81-6.26 9.6-6.26v-.2c0-.91-.47-2.14-2.98-2.14-1.67 0-3.45.56-4.52 1.23l-.93-3.28c1.14-.63 3.37-1.47 6.35-1.47 5.45 0 7.16 3.21 7.16 7.09V444zm-4.92-3.78c-2.68 0-4.75.64-4.75 2.58 0 1.31.87 1.94 2.01 1.94 1.23 0 2.31-.84 2.64-1.87.06-.27.1-.57.1-.87v-1.78zm8.61 3.32c.93.56 2.87 1.2 4.38 1.2 1.54 0 2.17-.5 2.17-1.34 0-.87-.5-1.27-2.38-1.9-3.42-1.14-4.72-2.98-4.68-4.92 0-3.07 2.61-5.38 6.65-5.38 1.91 0 3.58.47 4.58.97l-.87 3.52c-.73-.4-2.17-.94-3.54-.94-1.24 0-1.94.51-1.94 1.31s.64 1.21 2.64 1.91c3.11 1.07 4.38 2.67 4.42 5.05 0 3.07-2.38 5.32-7.06 5.32-2.14 0-4.05-.51-5.29-1.17l.9-3.62zm14.19 0c.93.56 2.87 1.2 4.38 1.2 1.54 0 2.17-.5 2.17-1.34 0-.87-.51-1.27-2.38-1.9-3.41-1.14-4.72-2.98-4.68-4.92 0-3.07 2.61-5.38 6.66-5.38 1.91 0 3.58.47 4.58.97l-.87 3.52c-.74-.4-2.17-.94-3.55-.94-1.24 0-1.94.51-1.94 1.31s.64 1.21 2.64 1.91c3.11 1.07 4.39 2.67 4.42 5.05 0 3.07-2.38 5.32-7.06 5.32-2.14 0-4.05-.51-5.28-1.17l.91-3.62zm18.13-2.14c.13 2.1 2.24 3.11 4.61 3.11 1.73 0 3.14-.24 4.51-.71l.66 3.45c-1.67.7-3.71 1.04-5.91 1.04-5.55 0-8.73-3.21-8.73-8.33 0-4.15 2.58-8.73 8.26-8.73 5.29 0 7.29 4.12 7.29 8.16 0 .87-.09 1.64-.16 2.01H603zm5.98-3.48c0-1.24-.54-3.32-2.88-3.32-2.14 0-3.01 1.98-3.15 3.32h6.1zm-475.37-41.4h-30.1c.24 2.7 1.59 4.79 4.04 6.29 2.45 1.49 5.51 2.23 9.18 2.23 4.7 0 9.01-.57 12.96-1.74l1.85 9.42c-4.69 1.97-10.3 2.94-16.84 2.94-7.75 0-13.81-2.06-18.2-6.19-4.41-4.14-6.6-9.78-6.6-16.96 0-6.6 2.12-12.26 6.34-17.04 4.22-4.78 9.92-7.16 17.07-7.16 6.6 0 11.72 2.12 15.37 6.39 3.64 4.25 5.46 9.7 5.46 16.36 0 2.19-.18 4-.55 5.46zm-30.28-9.75h17.42c0-2.15-.63-4.19-1.87-6.13-1.26-1.95-3.38-2.93-6.37-2.93-2.48 0-4.52.84-6.15 2.5-1.62 1.68-2.64 3.86-3.03 6.56zM79.6 414.28H37v-8.3c13.15-11.49 21.04-18.94 23.65-22.38 2.61-3.43 3.9-6.53 3.9-9.32 0-2.71-.84-4.82-2.55-6.35-1.696-1.54-4.134-2.31-7.305-2.31-4.28 0-8.62 1.76-13.02 5.27l-3.98-10.02c5.64-4.18 12.23-6.27 19.8-6.27 6.48 0 11.59 1.7 15.35 5.08 3.76 3.39 5.63 7.9 5.63 13.52 0 3.98-1.22 8.05-3.66 12.21-2.44 4.17-8.29 9.95-17.54 17.31v.17h22.4v11.36z"/></svg>