<svg xmlns="http://www.w3.org/2000/svg" viewBox="0 1020.7 612 98.3" enable-background="new 0 1020.7 612 98.3"><path d="M0 1054.2l15.8 27.7 16-27.7H0zm103.8-1.1c-2.4-5.8-6.4-12.6-10.8-17-4.6-4.6-9.5-8.7-15.4-11.2-6.2-2.6-11.4-4-19-4.2-6.7-.2-14.4 1-20.6 3.6-6 2.5-11.3 6.1-15.9 10.7s-8.2 9.9-10.7 15.9c-.6 1.4-1.1 2.8-1.6 4.2H21l.1-.1c2-4.7 4.8-8.9 8.5-12.5 3.6-3.6 7.8-6.5 12.5-8.5 4.9-2.1 10-3.1 15.4-3.1 5.3 0 10.4 1.3 15.3 3.4 4.7 2 8.3 5.1 12 8.7 3.6 3.6 6.7 8.7 8.7 13.4.5 1.2.9 2.2 1.2 3.4 0 0 3.1-3.2 4.3-4.1 1-.8 4.8-2.6 4.8-2.6zm-12.4 34.8c-1.6 3.3-3.5 6.1-6.2 8.8-3.6 3.6-7.7 6.8-12.4 8.8-4.9 2-9.2 3.4-14.5 3.4-5.3 0-10.4-.5-15.2-2.5-4.7-2-8.4-3.8-12-7.4-2.9-2.9-6.4-7.4-8.2-11l-11.5-.1.5 1.3c2.5 5.9 6.2 11.3 10.8 15.9 10.7 10.7 24 15.2 40 13.7 4.7-.5 10-1.8 14.4-3.6 8.8-3.7 16.9-10.7 22.1-19.1 0 0-3.1-2.4-4-3.4-1.2-1.1-3.8-4.8-3.8-4.8zm54.7 10.3v-30.6c0-4.5-.1-9.3-.3-14.5h12l.6 6.2h.3c3.2-4.9 7.9-7.3 14-7.3 2.9 0 5.5.7 7.8 2.1 2.3 1.4 3.9 3.4 4.9 5.9h.2c3.8-5.3 8.7-7.9 14.8-7.9 4.8 0 8.5 1.7 11.3 5.2 2.8 3.4 4.2 8.3 4.2 14.7v26.3H202V1074c0-6.9-2.3-10.4-6.9-10.4-2.1 0-3.8.8-5.1 2.4-1.4 1.6-2 3.7-2 6.2v26.1h-14v-24.9c0-3.1-.6-5.5-1.7-7.2-1.2-1.7-2.8-2.5-5-2.5-2 0-3.7.8-5.2 2.4-1.5 1.6-2.2 3.7-2.2 6.3v26l-13.8-.2zm122.2-18.1h-30c.2 2.7 1.6 4.8 4 6.3s5.5 2.2 9.1 2.2c4.7 0 9-.6 12.9-1.7l1.8 9.4c-4.7 2-10.3 2.9-16.8 2.9-7.7 0-13.8-2-18.1-6.2-4.4-4.1-6.6-9.7-6.6-16.9 0-6.6 2.1-12.2 6.3-17 4.2-4.8 9.9-7.1 17-7.1 6.6 0 11.7 2.1 15.3 6.4 3.6 4.2 5.4 9.7 5.4 16.3.2 2.2 0 4-.3 5.4zm-30.2-9.7h17.3c0-2.1-.6-4.2-1.9-6.1-1.2-1.9-3.4-2.9-6.3-2.9-2.5 0-4.5.8-6.1 2.5-1.6 1.7-2.6 3.8-3 6.5zm39.1 27.8v-30.6c0-4.5-.1-9.3-.4-14.5h12l.7 6.2h.3c3.2-4.9 7.9-7.3 14-7.3 2.9 0 5.5.7 7.8 2.1 2.3 1.4 3.9 3.4 4.9 5.9h.2c3.8-5.3 8.7-7.9 14.8-7.9 4.7 0 8.5 1.7 11.3 5.2 2.8 3.4 4.2 8.3 4.2 14.7v26.3h-14V1074c0-6.9-2.3-10.4-6.9-10.4-2.1 0-3.8.8-5.1 2.4-1.4 1.6-2 3.7-2 6.2v26.1h-13.9v-24.9c0-3.1-.6-5.5-1.7-7.2-1.2-1.7-2.8-2.5-5-2.5-2 0-3.7.8-5.2 2.4-1.5 1.6-2.2 3.7-2.2 6.3v26l-13.8-.2zm119.8-26.7v15.7c0 4.5.2 8.2.7 11h-12.9l-.8-4.5h-.4c-3.1 3.7-7.5 5.6-13.2 5.6-4.4 0-8-1.3-10.8-4-2.8-2.7-4.2-6-4.2-9.8 0-5.6 2.3-9.9 7.1-12.9 4.7-3 11.4-4.5 20.2-4.5v-.6c0-3.8-2.8-5.7-8.5-5.7-4.6 0-8.9 1.2-12.8 3.5l-2.7-9c5-2.8 11-4.2 18-4.2 6.6 0 11.7 1.7 15.1 5 3.4 3.3 5.2 8.2 5.2 14.4zm-13.7 9.9v-4.5c-9 0-13.5 2.3-13.5 6.9 0 1.6.5 2.9 1.5 3.9 1 .9 2.4 1.4 4.2 1.4 1.9 0 3.7-.6 5.4-2 1.6-1.4 2.4-3.3 2.4-5.7zm40.3-41.8c0 2.1-.7 3.9-2.2 5.3-1.5 1.4-3.4 2.1-5.8 2.1s-4.4-.7-5.8-2.1c-1.5-1.4-2.2-3.2-2.2-5.3 0-2.1.7-3.9 2.3-5.3 1.5-1.4 3.4-2.1 5.8-2.1s4.3.7 5.8 2.1c1.4 1.5 2.1 3.2 2.1 5.3zm-1 58.6h-14.2v-45.1h14.2v45.1zm11.6 0v-30.6c0-4.5-.1-9.3-.3-14.5h12.3l.7 6.4h.4c3.4-5 8.1-7.4 14.3-7.4 5.1 0 9.1 1.7 12.1 5.1 3 3.4 4.5 8.3 4.5 14.5v26.5H464v-24.7c0-6.7-2.5-10-7.5-10-2.1 0-3.9.8-5.5 2.3-1.6 1.5-2.4 3.7-2.4 6.6v25.8h-14.4zm71.1-7.6c0 2.5-.8 4.6-2.4 6.2-1.6 1.6-3.6 2.4-6.1 2.4-2.5 0-4.5-.8-6-2.4-1.6-1.6-2.4-3.7-2.4-6.2s.8-4.5 2.4-6.2c1.6-1.6 3.6-2.4 6.1-2.4 2.5 0 4.5.8 6.1 2.4 1.6 1.7 2.3 3.7 2.3 6.2zm8.5-6v-52.2H528v26.2h.2c3.1-4.4 7.9-6.6 14.2-6.6 5.6 0 10.2 2.1 13.9 6.3 3.6 4.2 5.4 9.7 5.4 16.5 0 4.7-.9 8.9-2.7 12.6-1.8 3.8-4.4 6.7-7.7 8.7-3.3 2.1-6.9 3.1-10.8 3.1-6.4 0-11-2.5-14.1-7.4h-.2l-.6 6.4h-12.1c.2-4.1.3-8.6.3-13.6zm14.2-11.8v6c0 3.1.9 5.4 2.8 7.1 1.9 1.6 3.9 2.4 6.2 2.4 3.1 0 5.6-1.1 7.4-3.4 1.8-2.3 2.7-5.4 2.7-9.3 0-3.8-.9-6.8-2.7-9.1-1.8-2.3-4.3-3.5-7.4-3.5-2.4 0-4.6.9-6.3 2.8-1.8 1.8-2.7 4.1-2.7 7zm83.4 7.3h-30c.2 2.7 1.6 4.8 4 6.3s5.5 2.2 9.1 2.2c4.7 0 9-.6 12.9-1.7l1.8 9.4c-4.7 2-10.2 2.9-16.8 2.9-7.7 0-13.8-2-18.1-6.2-4.4-4.1-6.6-9.7-6.6-16.9 0-6.6 2.1-12.2 6.3-17 4.2-4.8 9.9-7.1 17-7.1 6.6 0 11.7 2.1 15.3 6.4 3.6 4.2 5.4 9.7 5.4 16.3.3 2.2.1 4-.3 5.4zm-30.1-9.7h17.3c0-2.1-.6-4.2-1.9-6.1-1.2-1.9-3.4-2.9-6.3-2.9-2.5 0-4.5.8-6.1 2.5-1.6 1.7-2.6 3.8-3 6.5zm-448.2 9.7h-30c.2 2.7 1.6 4.8 4 6.3s5.5 2.2 9.1 2.2c4.7 0 9-.6 12.9-1.7l1.8 9.4c-4.7 2-10.3 2.9-16.8 2.9-7.7 0-13.8-2-18.1-6.2-4.4-4.1-6.6-9.7-6.6-16.9 0-6.6 2.1-12.2 6.3-17 4.2-4.8 9.9-7.1 17-7.1 6.6 0 11.7 2.1 15.3 6.4 3.6 4.2 5.4 9.7 5.4 16.3.2 2.2.1 4-.3 5.4zm-30.2-9.7h17.3c0-2.1-.6-4.2-1.9-6.1-1.2-1.9-3.4-2.9-6.3-2.9-2.5 0-4.5.8-6.1 2.5-1.6 1.7-2.6 3.8-3 6.5zm-23.6 27.4H36.9v-8.3c13.1-11.4 21-18.9 23.6-22.3 2.6-3.4 3.9-6.5 3.9-9.3 0-2.7-.8-4.8-2.5-6.3s-4.1-2.3-7.3-2.3c-4.3 0-8.6 1.8-13 5.2l-4-10c5.6-4.2 12.2-6.2 19.7-6.2 6.4 0 11.5 1.7 15.3 5.1 3.7 3.4 5.6 7.9 5.6 13.5 0 4-1.2 8-3.7 12.2-2.4 4.1-8.3 9.9-17.5 17.2v.2h22.3v11.3z" fill="#fff"/></svg>